<svg xmlns="http://www.w3.org/2000/svg" data-name="Layer 1" viewBox="0 0 512 512"><g data-name="&lt;Group&gt;"><g data-name="&lt;Group&gt;"><path fill="#00efd1" d="M90.146,243.179a15.584,15.584,0,0,1,.547,4.081,15.344,15.344,0,0,1-1.527,6.644,133.91,133.91,0,0,0-13.3,58.536,135.574,135.574,0,0,0,55.588,109.218,7,7,0,0,0,10.981-4.257c12-58.695,39.547-98.131,68.561-98.131s56.567,39.436,68.562,98.131a7,7,0,0,0,10.98,4.256,135.273,135.273,0,0,0,51.559-76.35l-13.582-3.394a121.139,121.139,0,0,1-37.722,61.633c-6.519-26.578-16.23-49.349-28.348-66.339-14.9-20.894-32.692-31.937-51.449-31.937s-36.548,11.043-51.449,31.937c-12.116,16.988-21.828,39.758-28.347,66.334a121.568,121.568,0,0,1-41.334-91.1,120.008,120.008,0,0,1,11.912-52.453,29.3,29.3,0,0,0-1.188-27.71C70.6,181.948,64.605,136.036,85.321,115.311c18.257-18.248,55.338-16.167,99.2,5.562a60,60,0,0,0,52.954,0c43.858-21.729,80.941-23.808,99.192-5.563,13.429,13.428,13.476,34.414,11.15,49.654l13.84,2.112c4.034-26.436-1.184-47.76-15.091-61.667C334.848,93.7,317.546,88.075,296.547,89.127c-19.323.973-41.9,7.612-65.29,19.2a45.924,45.924,0,0,1-40.527,0c-23.39-11.589-45.967-18.228-65.291-19.2-21-1.053-38.3,4.574-50.017,16.284-25.787,25.8-20.753,77.157,13.13,134.018A15.483,15.483,0,0,1,90.146,243.179Z" data-name="&lt;Path&gt;"/><path fill="#00efd1" d="M128 147.5a7 7 0 0 0-14 0v31a7 7 0 0 0 14 0zM121 195.5a7 7 0 0 0-7 7v14a7 7 0 0 0 14 0v-14A7 7 0 0 0 121 195.5z" data-name="&lt;Path&gt;"/></g><g data-name="&lt;Group&gt;"><path fill="#00acea" d="M333.7,350.424A97.009,97.009,0,1,0,355.993,159c-.487,0-.975,0-1.463.022a97,97,0,0,0-74.241,157.631A97.392,97.392,0,0,0,333.7,350.424ZM296.921,197.692a82.45,82.45,0,0,1,57.906-24.672c.08,0,.16,0,.239-.008.228-.011.455-.012.683-.012h.244A83.012,83.012,0,1,1,291.21,307.894a83.014,83.014,0,0,1,5.711-110.2Z" data-name="&lt;Compound Path&gt;"/><path fill="#00acea" d="M337.041,287.544a7,7,0,0,0,9.874.416l58.514-53.6a7,7,0,0,0-9.457-10.324L342.6,272.924l-26.171-28.379a7,7,0,1,0-10.291,9.492Z" data-name="&lt;Path&gt;"/></g></g></svg>