<svg xmlns="http://www.w3.org/2000/svg" data-name="Layer 1" viewBox="0 0 512 512"><g data-name="&lt;Group&gt;"><g data-name="&lt;Group&gt;"><path fill="#00efd1" d="M484.2,106.68c1.03,0,2.06-.04,3.09-.13a35.3,35.3,0,0,0-25.81,37.08,35.3,35.3,0,0,0-34.01-25.94c-1.02,0-2.04.04-3.07.13a35.268,35.268,0,0,0,25.94-33.99c0-1.03-.04-2.06-.13-3.09A35.268,35.268,0,0,0,484.2,106.68Z" data-name="&lt;Path&gt;"/></g><g data-name="&lt;Group&gt;"><path fill="#00acea" d="M393.15,87.95c25.79,25.8,17.95,78.45-15.16,134.03a23.851,23.851,0,0,0-.97,22.5A136.9,136.9,0,0,1,334.2,414.35c-13.3-65.12-44.34-110.78-80.54-110.78s-67.24,45.66-80.55,110.78a136.652,136.652,0,0,1-55.27-93.82q-.51-4.125-.76-8.32l-.13-.55a55.093,55.093,0,0,1,39.92,5.77,55.227,55.227,0,0,1-12.48-69.61,54.787,54.787,0,0,1-21.54,15.66,135.671,135.671,0,0,1,7.44-19,23.78,23.78,0,0,0,1.52-16.65,23.376,23.376,0,0,0-2.49-5.85C96.21,166.4,88.37,113.75,114.16,87.95c22.76-22.75,66.41-19.33,114.54,4.52a56.3,56.3,0,0,0,49.92,0C326.74,68.62,370.39,65.2,393.15,87.95Z" data-name="&lt;Path&gt;"/></g><g data-name="&lt;Group&gt;"><path fill="#00efd1" d="M122.85,263.48a54.787,54.787,0,0,0,21.54-15.66,55.227,55.227,0,0,0,12.48,69.61A55.252,55.252,0,0,0,87.26,329.9a55.225,55.225,0,0,0-12.47-69.6,55.189,55.189,0,0,0,48.06,3.18Z" data-name="&lt;Path&gt;"/></g><g data-name="&lt;Group&gt;"><path fill="#00efd1" d="M66.27,389.31a33.129,33.129,0,0,0,8.52,41.56,33.138,33.138,0,0,0-41.56,8.52,33.012,33.012,0,0,0,3.94-15.65,33.134,33.134,0,0,0-12.46-25.91,33.129,33.129,0,0,0,41.56-8.52Z" data-name="&lt;Path&gt;"/></g></g></svg>