<svg xmlns="http://www.w3.org/2000/svg" xmlns:xlink="http://www.w3.org/1999/xlink" data-name="Layer 1" viewBox="0 0 512 512"><defs><linearGradient id="a" x1="256.206" x2="256.206" y1="34" y2="482.366" gradientUnits="userSpaceOnUse"><stop offset="0" stop-color="#00efd1"/><stop offset="1" stop-color="#00acea"/></linearGradient><linearGradient id="b" x1="333.013" x2="333.013" y1="34" y2="482.366" xlink:href="#a"/></defs><path fill="url(#a)" d="M429,232.287V17.31a8.118,8.118,0,0,0-11.432-7.289L324.557,52.1l-93-42.077a8.016,8.016,0,0,0-6.6,0L131.967,52.1,38.978,10.021a7.694,7.694,0,0,0-7.475.566A7.857,7.857,0,0,0,28,17.31V316.477a7.853,7.853,0,0,0,4.542,7.288l96.2,43.568a7.805,7.805,0,0,0,3.258.712,7.9,7.9,0,0,0,3.278-.712l43.651-19.756c-.013.8-.035,1.6-.035,2.4,0,84.207,68.5,152.715,152.711,152.715s152.8-68.508,152.8-152.715A152,152,0,0,0,429,232.287Zm-16-11.582a151.26,151.26,0,0,0-80-23.432V66.039l80-36.328ZM236,29.711l81,36.328V198c-31,2.972-58,14.775-81,32.781Zm-192,0,80,36.328V347.644L44,311.315Zm96,317.933V66.039l80-36.328V245.588A153.463,153.463,0,0,0,180.176,329.4ZM331.606,486.69c-75.384,0-136.713-61.33-136.713-136.715s61.329-136.714,136.713-136.714S468.321,274.59,468.321,349.975,406.991,486.69,331.606,486.69Z"/><path fill="url(#b)" d="M365.705,267.675c-7.434.555-35.809,7.639-44.918,9.95a66.942,66.942,0,0,1-7.18-4.294c-4.073-2.691-7.92-5.233-12.978-5.632a46.028,46.028,0,0,0-49.386,50.8c2.518,22.916,11.1,68.459,40.305,116.007a11.408,11.408,0,0,0,20.767-3.118l3-11.614a67.074,67.074,0,0,1,16.537-29.641l.18-.188.354.339a66.958,66.958,0,0,1,18.23,30.48l3.047,10.985A11.4,11.4,0,0,0,363.055,440a11.532,11.532,0,0,0,1.6.112,11.407,11.407,0,0,0,9.715-5.433c29.3-47.64,37.9-93.262,40.413-116.215a45.954,45.954,0,0,0-49.079-50.789Zm33.175,49.044a268.972,268.972,0,0,1-32.7,100.321l-.153-.548a82.97,82.97,0,0,0-22.588-37.765l-1.21-1.159a14.834,14.834,0,0,0-20.922.443l-1,1.042A83.107,83.107,0,0,0,299.82,415.78l-.216.84a268.95,268.95,0,0,1-32.457-99.864,30.029,30.029,0,0,1,32.226-33.107c.939.075,3.42,1.714,5.414,3.031,8.272,5.466,22.112,14.611,52.191,10.852a8,8,0,0,0,5.094-13.132c2.186-.422,3.871-.7,4.824-.769a29.955,29.955,0,0,1,31.984,33.088Z"/></svg>