<?xml version="1.0" standalone="no"?>
<!DOCTYPE svg PUBLIC "-//W3C//DTD SVG 20010904//EN"
 "http://www.w3.org/TR/2001/REC-SVG-20010904/DTD/svg10.dtd">
<svg version="1.0" xmlns="http://www.w3.org/2000/svg"
 width="64.000000pt" height="64.000000pt" viewBox="0 0 64.000000 64.000000"
 preserveAspectRatio="xMidYMid meet">

<g transform="translate(0.000000,64.000000) scale(0.100000,-0.100000)"
fill="#000000" stroke="none">
<path d="M120 523 c-39 -14 -53 -81 -28 -140 6 -15 12 -67 12 -114 1 -78 4
-89 29 -122 32 -42 42 -41 52 3 9 42 52 90 80 90 28 0 61 -38 76 -91 10 -31
15 -36 29 -29 9 5 25 25 35 44 14 25 26 36 43 36 31 0 77 25 96 52 9 13 16 43
16 69 0 56 -25 92 -75 110 -26 10 -35 19 -35 35 0 24 -43 64 -68 64 -8 0 -39
-8 -69 -17 -50 -16 -56 -16 -101 0 -48 18 -66 19 -92 10z m101 -30 c43 -15 50
-15 88 0 72 29 107 22 124 -26 5 -13 0 -20 -21 -28 -95 -36 -117 -149 -41
-213 34 -29 35 -34 13 -65 l-16 -23 -18 39 c-20 44 -63 83 -92 83 -27 0 -75
-53 -83 -91 -7 -29 -8 -30 -26 -13 -29 27 -42 85 -28 137 9 36 8 50 -4 73 -26
51 -30 92 -13 119 20 30 52 32 117 8z m290 -102 c23 -23 29 -38 29 -71 0 -90
-99 -133 -161 -71 -62 62 -20 171 66 171 27 0 44 -8 66 -29z"/>
<path d="M140 435 c0 -14 5 -25 10 -25 6 0 10 11 10 25 0 14 -4 25 -10 25 -5
0 -10 -11 -10 -25z"/>
<path d="M140 375 c0 -8 5 -15 10 -15 6 0 10 7 10 15 0 8 -4 15 -10 15 -5 0
-10 -7 -10 -15z"/>
<path d="M458 333 c-26 -25 -28 -26 -46 -10 -22 20 -32 22 -32 4 0 -16 32 -47
48 -47 14 0 82 59 82 71 0 17 -26 9 -52 -18z"/>
</g>
</svg>
