<?xml version="1.0" standalone="no"?>
<!DOCTYPE svg PUBLIC "-//W3C//DTD SVG 20010904//EN"
 "http://www.w3.org/TR/2001/REC-SVG-20010904/DTD/svg10.dtd">
<svg version="1.0" xmlns="http://www.w3.org/2000/svg"
 width="64.000000pt" height="64.000000pt" viewBox="0 0 64.000000 64.000000"
 preserveAspectRatio="xMidYMid meet">

<g transform="translate(0.000000,64.000000) scale(0.100000,-0.100000)"
fill="#000000" stroke="none">
<path d="M216 509 c-14 -11 -26 -30 -26 -43 0 -16 -9 -25 -35 -35 -50 -18 -75
-54 -75 -110 0 -26 7 -56 16 -69 19 -27 65 -52 96 -52 17 0 29 -11 43 -36 10
-19 26 -39 35 -44 14 -7 19 -2 29 29 15 53 48 91 76 91 28 0 71 -48 80 -90 10
-44 20 -45 52 -3 25 33 28 44 29 122 0 47 6 99 12 114 15 35 15 92 2 117 -15
29 -64 34 -120 14 -47 -17 -52 -17 -103 -1 -69 22 -79 21 -111 -4z m115 -16
c43 -15 50 -15 88 0 112 45 161 -15 104 -127 -12 -23 -13 -37 -4 -73 14 -52 1
-110 -28 -137 -18 -17 -19 -16 -26 13 -8 38 -56 91 -83 91 -29 0 -72 -39 -92
-83 l-18 -39 -16 23 c-22 31 -21 36 13 65 75 63 56 171 -36 209 -25 11 -31 18
-26 32 17 48 47 54 124 26z m-70 -102 c41 -41 41 -101 0 -142 -41 -40 -91 -40
-132 0 -62 62 -20 171 66 171 27 0 44 -8 66 -29z"/>
<path d="M173 393 c-7 -2 -13 -13 -13 -24 0 -12 -7 -19 -20 -19 -16 0 -20 -7
-20 -30 0 -23 4 -30 20 -30 13 0 20 -7 20 -19 0 -22 28 -35 54 -25 9 3 16 15
16 25 0 12 7 19 20 19 16 0 20 7 20 30 0 23 -4 30 -20 30 -13 0 -20 7 -20 19
0 25 -27 37 -57 24z m37 -43 c0 -13 7 -20 20 -20 11 0 20 -4 20 -10 0 -5 -9
-10 -20 -10 -13 0 -20 -7 -20 -20 0 -11 -7 -20 -15 -20 -8 0 -15 9 -15 20 0
13 -7 20 -20 20 -11 0 -20 5 -20 10 0 6 9 10 20 10 13 0 20 7 20 20 0 11 7 20
15 20 8 0 15 -9 15 -20z"/>
</g>
</svg>
