<?xml version="1.0" standalone="no"?>
<!DOCTYPE svg PUBLIC "-//W3C//DTD SVG 20010904//EN"
 "http://www.w3.org/TR/2001/REC-SVG-20010904/DTD/svg10.dtd">
<svg version="1.0" xmlns="http://www.w3.org/2000/svg"
 width="64.000000pt" height="64.000000pt" viewBox="0 0 64.000000 64.000000"
 preserveAspectRatio="xMidYMid meet">

<g transform="translate(0.000000,64.000000) scale(0.100000,-0.100000)"
fill="#000000" stroke="none">
<path d="M111 517 c-36 -18 -43 -60 -22 -126 13 -40 17 -75 14 -122 -5 -70 6
-107 46 -143 20 -18 21 -18 31 8 5 15 10 31 10 36 0 20 53 70 75 70 28 0 61
-38 76 -91 14 -44 29 -42 59 5 15 25 26 33 50 33 62 0 120 84 120 175 0 36 -3
39 -57 67 -33 16 -62 39 -68 52 -5 13 -22 30 -36 38 -24 13 -33 13 -88 -4 -59
-18 -65 -18 -109 -2 -56 20 -69 21 -101 4z m107 -23 c40 -16 46 -16 97 2 64
21 108 12 113 -23 2 -16 -7 -27 -40 -45 -43 -23 -43 -24 -46 -83 -2 -60 1 -70
50 -136 9 -14 8 -23 -7 -45 l-18 -28 -18 40 c-19 45 -61 84 -91 84 -26 0 -75
-53 -83 -90 -9 -41 -20 -38 -44 13 -24 49 -26 71 -10 116 9 26 8 40 -10 81
-25 59 -26 87 -4 112 20 22 54 23 111 2z m284 -81 l50 -27 -5 -48 c-7 -59 -30
-100 -69 -122 -27 -16 -31 -17 -54 -1 -39 25 -64 74 -64 127 0 44 2 48 43 71
23 14 44 25 46 26 2 1 26 -11 53 -26z"/>
<path d="M140 435 c0 -14 5 -25 10 -25 6 0 10 11 10 25 0 14 -4 25 -10 25 -5
0 -10 -11 -10 -25z"/>
<path d="M140 375 c0 -8 5 -15 10 -15 6 0 10 7 10 15 0 8 -4 15 -10 15 -5 0
-10 -7 -10 -15z"/>
<path d="M468 333 c-27 -26 -28 -26 -48 -8 -23 21 -40 12 -24 -12 23 -37 40
-38 83 -4 22 18 41 37 41 42 0 17 -26 9 -52 -18z"/>
</g>
</svg>
